<?xml version="1.0" encoding="utf-8"?>
<!-- Generator: Adobe Illustrator 16.0.0, SVG Export Plug-In . SVG Version: 6.00 Build 0)  -->
<!DOCTYPE svg PUBLIC "-//W3C//DTD SVG 1.1//EN" "http://www.w3.org/Graphics/SVG/1.1/DTD/svg11.dtd">
<svg version="1.1" id="Layer_1" xmlns="http://www.w3.org/2000/svg" xmlns:xlink="http://www.w3.org/1999/xlink" x="0px" y="0px"
	 width="123px" height="118.161px" viewBox="34.5 21.833 123 118.161" enable-background="new 34.5 21.833 123 118.161"
	 xml:space="preserve">
<g>
	<g>
		<path fill="#FFFFFF" d="M37.285,32.641c2.108-0.365,4.195-0.838,6.303-1.204c-0.998-0.342-1.996-0.686-2.994-1.03
			c0.525,9.408-0.852,18.726-0.569,28.105c0.074,2.435,0.107,4.86-0.063,7.292c-0.071,1.004-0.232,1.988-0.451,2.966
			c-0.07,0.363-0.199,0.699-0.388,1.008c2.483-4.415,5.726,0.561,3.081-2.391c-1.667-1.859-8.268,0.898-6.467,2.908
			c2.165,2.415,5.413,3.119,8.178,1.169c2.7-1.904,2.942-5.073,3.098-8.303c0.177-3.68-0.081-7.359,0.082-11.042
			c0.351-7.918,0.899-15.79,0.456-23.718c-0.067-1.205-2.338-1.144-2.994-1.03c-2.108,0.364-4.195,0.839-6.303,1.204
			C34.97,29.144,32.472,33.475,37.285,32.641L37.285,32.641z"/>
	</g>
</g>
<g>
	<g>
		<path fill="#FFFFFF" d="M46.938,49.725C57.059,45.6,65.025,37.697,69.216,27.57c0.828-2.002-6.503-1.148-7.428,1.084
			c-3.34,8.075-9.483,15.189-17.661,18.523c-0.672,0.273-3.275,1.582-2.082,2.667C43.214,50.906,45.695,50.232,46.938,49.725
			L46.938,49.725z"/>
	</g>
</g>
<g>
	<g>
		<path fill="#FFFFFF" d="M43.279,50.202c4.683,1.16,6.75,6.786,8.804,11.09c2.254,4.726,4.882,9.102,9.51,11.071
			c1.602,0.681,3.431,0.364,4.873-0.671c0.838-0.601,2.16-2.533,0.555-3.216C57.379,64.375,58.1,48.44,47.433,45.797
			C45.097,45.219,39.308,49.219,43.279,50.202L43.279,50.202z"/>
	</g>
</g>
<g>
	<g>
		<path fill="#FFFFFF" d="M70.791,56.591c5.427-0.171,10.658-1.361,15.956-2.456c0.743-0.153,5.007-1.063,4.571-2.504
			c-2.193-7.257-7.487-12.839-15.49-11.434c-7.884,1.385-10.877,7.252-10.726,14.786c0.166,8.229,4.913,16.427,13.567,17.057
			c7.048,0.513,12.98-2.613,12.315-10.076c-0.135-1.517-7.918-0.066-7.728,2.07c0.146,1.64,0.221,3.136-0.349,4.712
			c1.446,0.158,1.01,0.093-1.307-0.194c-1.542-0.297-2.758-1.446-3.841-2.474c-3.019-2.863-4.395-8.055-4.854-12.056
			c-0.146-1.27,0.11-11.235,2.634-10.687c4.308,0.937,6.921,6.624,8.052,10.365c1.524-0.834,3.047-1.669,4.571-2.504
			c-4.671,0.965-9.256,2.06-14.044,2.211C72.026,53.475,65.664,56.753,70.791,56.591L70.791,56.591z"/>
	</g>
</g>
<g>
	<g>
		<path fill="#FFFFFF" d="M95.13,40.987c0.663-0.132,1.326-0.265,1.99-0.398c-0.732-0.184-1.465-0.368-2.197-0.55
			c0.783,10.143-2.082,20.212-0.332,30.314c0.086,0.501,1.043,0.564,1.363,0.57c3.635,0.072,7.03-0.713,9.313-3.747
			c0.867-1.154-2.902-0.828-3.103-0.792c-1.565,0.281-3.513,0.815-4.523,2.159c-0.26,0.217-0.521,0.436-0.781,0.653
			c1.822-0.496,3.643-0.991,5.465-1.486c-0.457-0.009-0.914-0.018-1.371-0.027c0.455,0.19,0.908,0.38,1.363,0.569
			c-1.748-10.104,1.115-20.172,0.334-30.314c-0.057-0.732-1.838-0.577-2.197-0.55c-2.811,0.203-5.359,0.812-8.01,1.767
			C87.25,41.028,92.173,42.054,95.13,40.987L95.13,40.987z"/>
	</g>
</g>
<g>
	<g>
		<path fill="#FFFFFF" d="M85.633,63.135c-2.636,1.12-2.939,0.51-1.375,0.678c0.685,0.073,1.364,0.206,2.039,0.341
			c1.724,0.345,3.843-0.311,5.393-1.019c0.567-0.259,2.704-1.544,0.979-1.89c-3.938-0.787-7.716-0.568-11.45,1.019
			c-0.581,0.247-2.695,1.552-0.979,1.89C81.998,64.499,84.04,63.812,85.633,63.135L85.633,63.135z"/>
	</g>
</g>
<g>
	<g>
		<path fill="#FFFFFF" d="M92.796,29.018c-0.624,1.399-1.274,3.251-0.204,4.62c1.206,1.542,3.879,1.464,5.527,0.887
			c1.858-0.652,3.497-1.629,4.576-3.335c0.804-1.27,0.712-2.817-0.163-4.011c-0.521-0.712-1.341-1.259-2.125-1.642
			c-1.606-0.783-3.578-0.498-5.033,0.52c-0.582,0.405-1.157,1.003-1.274,1.741c-0.099,0.618,0.232,1.306,0.802,1.584
			c0.416,0.203,0.813,0.436,1.167,0.733c-0.165-0.142-0.328-0.283-0.494-0.425c0.273,0.237,0.51,0.505,0.677,0.829
			c-0.093-0.183-0.187-0.364-0.281-0.546c0.112,0.233,0.179,0.478,0.193,0.737c-0.011-0.205-0.02-0.409-0.028-0.613
			c0.004,0.228-0.032,0.447-0.101,0.663c0.071-0.206,0.144-0.411,0.216-0.617c-0.083,0.236-0.202,0.454-0.347,0.656
			c0.145-0.196,0.29-0.393,0.435-0.59c-0.083,0.11-0.169,0.215-0.262,0.316c-0.049,0.051-0.097,0.1-0.147,0.147
			c-0.356,0.34,0.77-0.637,0.386-0.328c-0.107,0.087-0.223,0.166-0.338,0.242c-0.029,0.018-0.059,0.037-0.089,0.054
			c-0.273,0.161-0.057,0.038,0.65-0.371c-0.073,0.041-0.149,0.078-0.226,0.114c-0.059,0.027-0.12,0.053-0.182,0.077
			c-0.403,0.162,1.178-0.405,0.69-0.251c-0.059,0.02-0.12,0.035-0.18,0.049c-0.501,0.124,1.2-0.194,0.694-0.126
			c-0.64,0.085,1.112,0.058,0.487-0.001c-0.425-0.04,0.961,0.198,0.615,0.115c-0.061-0.015-0.118-0.036-0.174-0.06
			c0.222,0.098,0.445,0.195,0.668,0.293c-0.088-0.041-0.167-0.091-0.241-0.154c0.166,0.142,0.33,0.283,0.494,0.425
			c-0.084-0.077-0.15-0.164-0.206-0.263c0.095,0.182,0.187,0.364,0.281,0.546c-0.089-0.176-0.128-0.365-0.142-0.562
			c0.009,0.204,0.019,0.409,0.027,0.613c-0.021-0.482,0.101-0.956,0.256-1.408c-0.073,0.206-0.145,0.412-0.217,0.617
			c0.087-0.243,0.184-0.48,0.287-0.714c0.27-0.605,0.358-1.221-0.092-1.777c-0.467-0.578-1.263-0.806-1.967-0.866
			c-0.943-0.079-1.919,0.118-2.776,0.514C93.965,27.757,93.116,28.301,92.796,29.018L92.796,29.018z"/>
	</g>
</g>
<g>
	<g>
		<path fill="#FFFFFF" d="M111.012,45.259c1.317-1.237,5.318-1.112,7.081-1.408c3.302-0.555,6.506-1.609,9.11-3.765
			c1.133-0.938,1.827-2.832,0.128-3.606c-1.758-0.801-4.026,0.042-5.413,1.189c-1.794,1.486-5.552,1.371-7.765,1.725
			c-2.988,0.479-6.164,1.323-8.425,3.448C101.898,46.442,108.488,47.632,111.012,45.259L111.012,45.259z"/>
	</g>
</g>
<g>
	<g>
		<path fill="#FFFFFF" d="M110.507,28.783c0.558,0,1.111,0,1.668,0c-0.751-0.249-1.502-0.498-2.252-0.748
			c3.237,5.803,0.896,14.235,0.195,20.452c-0.418,3.732-0.552,7.502-0.505,11.256c0.039,3.182-0.239,8.626,2.484,10.926
			c2.979,2.516,8.563-0.907,10.555-3.198c1.841-2.115-5.723-1.231-7.066,0.314c-1.854,2.133,4.172,1.11,3.188-0.526
			c-0.293-0.488-0.439-1.081-0.601-1.621c-0.431-1.454-0.549-3.014-0.678-4.516c-0.295-3.432-0.195-6.914-0.009-10.349
			c0.41-7.443,4.021-17.897,0.164-24.809c-0.443-0.795-1.457-0.748-2.252-0.748c-0.557,0-1.11,0-1.668,0
			C111.378,25.217,105.335,28.783,110.507,28.783L110.507,28.783z"/>
	</g>
</g>
<g>
	<g>
		<path fill="#FFFFFF" d="M130.852,25.947c-0.776,0.111-1.556,0.222-2.332,0.333c-0.028,1.264-0.058,2.528-0.086,3.793
			c2.071-0.43,4.012-0.992,6.012-1.673c-1.785-0.139-3.569-0.277-5.354-0.417c1.107,11.271-2.021,22.532-2.321,33.811
			c-0.071,2.711-0.424,6.525,1.528,8.719c2.097,2.354,6.853,0.041,8.728-1.364c1.311-0.981,0.826-2.271-0.678-2.533
			c-1.883-0.327-3.964,0.339-5.465,1.464c4.633-3.472,4.592,1.124,3.861-2.621c-0.271-1.394-0.256-2.858-0.268-4.271
			c-0.023-2.748,0.246-5.509,0.51-8.242c0.867-8.982,2.721-17.986,1.83-27.033c-0.189-1.938-4.491-0.71-5.354-0.417
			c-1.309,0.421-2.638,0.753-3.988,0.994c-3.57,0.741-4.588,4.437-0.086,3.793c0.777-0.111,1.557-0.222,2.334-0.333
			C133.32,29.437,136.221,25.179,130.852,25.947L130.852,25.947z"/>
	</g>
</g>
<g>
	<g>
		<path fill="#FFFFFF" d="M124.479,47.996c7.141-0.508,13.076-5.605,20.142-6.337c-1.103-0.341-2.204-0.681-3.306-1.022
			c0.432,9.014-0.807,18.132,1.719,26.958c2.184,7.633,10.828,2.414,13.879-1.532c2.07-2.68-5.68-1.969-7.164-0.049
			c-2.053,2.655,2.313,1.655,1.643,0.901c-0.477-0.534-0.662-1.567-0.854-2.236c-0.521-1.824-0.676-3.777-0.881-5.658
			c-0.754-6.896-0.284-13.611-0.615-20.517c-0.063-1.284-2.619-1.094-3.307-1.022c-3.521,0.365-6.814,1.459-10.112,2.737
			c-3.231,1.251-6.534,3.352-10.026,3.601C121.878,44.083,119.111,48.378,124.479,47.996L124.479,47.996z"/>
	</g>
</g>
<g>
	<g>
		<path fill="#FFFFFF" d="M36.453,79.281c3.447,0.85,5.062,7.337,6.608,10.082c1.99,3.532,5.367,6.309,9.642,5.892
			c3.743-0.365,7.251-1.565,9.337-4.845C63.567,88.009,67.8,80.28,71,79.5c0.684-0.167,1.158,0.459,0.833-0.75
			c-0.33-1.229-4.192-2.072-4.879-1.905c-8.554,2.085-8.952,8.125-12.543,14.9c-0.792,1.494,3.594-0.254,1.006-1.578
			c-1.167,1.833-2.462-0.015-3.11-0.695c-1.532-1.61-2.475-3.903-3.419-5.881c-1.372-2.874-2.686-6.513-6.1-7.355
			C40.958,75.784,34.164,78.717,36.453,79.281L36.453,79.281z"/>
	</g>
</g>
<g>
	<g>
		<path fill="#FFFFFF" d="M50.757,95.46c-0.037,4.413-0.325,8.81-0.177,13.226c0.086,2.571-0.042,7.832,3.215,8.629
			c1.735,0.425,3.858-0.181,5.412-0.946c0.657-0.323,2.66-1.735,0.905-2.165c-2.19-0.536-1.824-7.907-1.856-9.471
			c-0.076-3.783,0.196-7.561,0.228-11.342C58.496,91.961,50.776,93.104,50.757,95.46L50.757,95.46z"/>
	</g>
</g>
<g>
	<g>
		<path fill="#FFFFFF" d="M80.415,86.838c-17.749-4.075-21.96,28.673-6.052,30.604c9.449,1.146,15.822-6.385,16.942-14.936
			c0.922-7.04-0.796-17.465-9.742-17.122c-2.226,0.085-16.396,3.366-3.267,3.411c4.18-0.161,5.256,8.249,5.45,10.957
			c0.34,4.757-0.698,11.45-4.865,14.449c0.573-0.412,0.62,0.466-1.88-0.701c-1.099-0.646-1.708-1.936-2.353-3.002
			c-1.252-2.076-1.72-4.602-1.997-6.971c-0.317-2.713-0.066-5.467,0.523-8.123c0.28-1.26,0.739-2.467,1.275-3.637
			c0.203-0.418,0.43-0.823,0.681-1.215c1.146-1.909,7.442-3.353,5.121-3.886c1.771,0.406-0.61,2.258,0.979,1.458
			C81.877,87.799,82.204,87.249,80.415,86.838L80.415,86.838z"/>
	</g>
</g>
<g>
	<g>
		<path fill="#FFFFFF" d="M98.671,92.809c1.593-1.434,3.306-2.692,4.999-4c-2.152-0.469-4.307-0.938-6.461-1.408
			c-0.322,9.43,0.354,18.662,1.041,28.224c0.556,2.269,5.365,2.105,6.902,1.359c1.371-0.666,2.326-1.229,3.519-2.176
			c4.117-3.266-2.137-5.785-5.101-3.434c-0.604,0.386-1.209,0.771-1.813,1.157c1.854,0.396,2.014,0.196,3.867,0.593
			c-0.875-9.063-0.9-17.359-0.593-26.342c0.112-3.281-4.726-2.747-6.46-1.408c-1.695,1.308-3.408,2.566-5,4
			C89.68,92.881,95.831,95.368,98.671,92.809L98.671,92.809z"/>
	</g>
</g>
<g>
	<g>
		<path fill="#FFFFFF" d="M103.396,98.515c4.633-2.721,8.5-8.709,13.779-9.901c-1.445-0.246-2.893-0.491-4.338-0.737
			c1.354,4.891-3.493,39.002,11.162,27.039c3.108-2.535-3.134-4.206-4.697-2.93c-4.109-0.692,4.918,5.969,2.697,3.097
			c0.416-0.25-0.201,1.342-0.417,0.5c-0.459-1.789-1.589-23.813-1.802-25.645c-0.125-0.75-0.313-2.688-0.438-3.813
			c-0.432-1.559-2.594-0.793-3.117-1.057c-7.488,1.691-11.271,7.745-17.553,11.431C94.179,99.14,101.059,99.888,103.396,98.515
			L103.396,98.515z"/>
	</g>
</g>
<g>
	<g>
		<path fill="#FFFFFF" d="M147.977,89.846c0.98-2.31-1.42-4.452-3.434-5.256c-3.234-1.291-6.398-0.85-9.543,0.457
			c-5.82,2.418-8.807,10.084-8.936,15.928c-0.107,4.858,0.936,11.242,4.813,14.602c4.852,4.203,11,0.994,14.969-2.706
			c1.354-1.263,0.574-3.147-0.986-3.685c-1.969-0.678-4.02,0.116-5.465,1.463c-1.889,1.763-2.047,1.314-3.397-0.819
			c-1.326-2.093-1.711-4.931-2.008-7.333c-0.261-2.104-0.089-4.28,0.35-6.345c0.486-2.306,3.839-9.356,6.515-5.28
			c-0.049-0.704-0.101-1.408-0.148-2.111c-0.035,0.082-0.068,0.164-0.104,0.245C138.875,93.065,146.658,92.952,147.977,89.846
			L147.977,89.846z"/>
	</g>
</g>
<g>
	<g>
		<path fill="#FFFFFF" d="M146.849,87.82c0.356-0.863,0.684-1.725,0.982-2.603c0.348-1.025-1.436-1.402-2.345-1.402
			c-0.109,0-0.22,0-0.328,0c-1.312,0-5.278,0.558-5.264,2.127c0.12,11.877,2.904,23.532,4.267,35.329
			c0.339,2.93,1.785,6.828-0.14,9.548c-0.29,0.407-11.725-5.188-13.187-6.087c-0.383,0.716-0.765,1.432-1.147,2.146
			c1.563-0.75,3.092-1.513,4.587-2.343c4.226-2.345-2.284-3.265-4.748-1.897c-1.498,0.83-3.025,1.593-4.588,2.343
			c-0.653,0.314-2.23,1.481-1.147,2.146c6.392,3.928,25.016,12.822,28.495,1.54c0.585-1.899,0.141-4.124-0.131-6.031
			c-0.487-3.448-0.868-6.904-1.39-10.35c-1.363-9.011-3.174-17.972-3.265-27.069c-1.754,0.709-3.508,1.417-5.263,2.127
			c0.109,0,0.219,0,0.328,0c-0.782-0.468-1.563-0.935-2.345-1.402c-0.3,0.877-0.626,1.74-0.983,2.603
			C138.34,90.717,145.982,89.906,146.849,87.82L146.849,87.82z"/>
	</g>
</g>
<g>
	<g>
		<path fill="#FFFFFF" d="M73.262,99.839c0.333,0.332,0.669,0.653,1.037,0.946c0.748,0.598,1.307,0.908,2.215,1.248
			c0.855,0.319,2.057,0.131,2.903-0.096c0.932-0.249,1.219-0.077,1.916-0.759c0.474-0.464,0.854-0.884,0.667-1.584
			c-0.202-0.753-0.417-1.417-0.847-2.105c-0.047-0.018-0.094-0.035-0.14-0.053c0.241,0.093,0.481,0.186,0.722,0.279
			c-0.297-0.134-0.563-0.304-0.823-0.5c0.176,0.139,0.353,0.277,0.529,0.416c-0.367-0.293-0.704-0.616-1.036-0.948
			c-1.3-1.298-3.656-0.911-5.161-0.247c-0.783,0.345-1.587,0.868-2.041,1.619C72.882,98.588,72.776,99.353,73.262,99.839
			L73.262,99.839z"/>
	</g>
</g>
</svg>
